<svg xmlns="http://www.w3.org/2000/svg" viewBox="0 0 400 300">
  <rect x="10" y="10" width="380" height="280" rx="20" ry="20" fill="#E8D0F0"/>
  <!-- Branch -->
  <path d="M140 80 Q200 90 260 75" stroke="#5D3A1A" stroke-width="6" fill="none" stroke-linecap="round"/>
  <path d="M180 85 Q175 120 170 140" stroke="#5D3A1A" stroke-width="4" fill="none" stroke-linecap="round"/>
  <path d="M220 80 Q225 110 230 135" stroke="#5D3A1A" stroke-width="4" fill="none" stroke-linecap="round"/>
  <!-- Leaves -->
  <ellipse cx="155" cy="70" rx="18" ry="12" fill="#6B9E4A" transform="rotate(-20 155 70)"/>
  <ellipse cx="245" cy="65" rx="18" ry="12" fill="#6B9E4A" transform="rotate(15 245 65)"/>
  <ellipse cx="200" cy="75" rx="16" ry="10" fill="#7DB35A" transform="rotate(-5 200 75)"/>
  <!-- Mulberry clusters (dark purple berries) -->
  <circle cx="168" cy="148" r="7" fill="#4A1259"/>
  <circle cx="158" cy="140" r="7" fill="#5C1A6E"/>
  <circle cx="178" cy="140" r="7" fill="#5C1A6E"/>
  <circle cx="163" cy="130" r="6" fill="#6B2080"/>
  <circle cx="173" cy="130" r="6" fill="#4A1259"/>
  <circle cx="168" cy="120" r="5" fill="#6B2080"/>
  <circle cx="228" cy="143" r="7" fill="#4A1259"/>
  <circle cx="238" cy="135" r="7" fill="#5C1A6E"/>
  <circle cx="218" cy="135" r="7" fill="#5C1A6E"/>
  <circle cx="223" cy="125" r="6" fill="#6B2080"/>
  <circle cx="233" cy="125" r="6" fill="#4A1259"/>
  <circle cx="228" cy="117" r="5" fill="#6B2080"/>
  <!-- Extra berries hanging -->
  <circle cx="195" cy="110" r="6" fill="#4A1259"/>
  <circle cx="205" cy="108" r="6" fill="#5C1A6E"/>
  <circle cx="200" cy="100" r="5" fill="#6B2080"/>
  <!-- Hand reaching -->
  <path d="M280 180 Q260 160 240 150" stroke="#D4A574" stroke-width="8" fill="none" stroke-linecap="round"/>
  <circle cx="240" cy="148" r="6" fill="#D4A574"/>
  <!-- Basket -->
  <path d="M160 200 Q200 230 240 200" stroke="#8B6914" stroke-width="3" fill="#C4943A"/>
  <path d="M155 200 L165 240 235 240 245 200" stroke="#8B6914" stroke-width="2" fill="#D4A44A"/>
  <line x1="160" y1="200" x2="240" y2="200" stroke="#8B6914" stroke-width="3"/>
  <!-- Berries in basket -->
  <circle cx="185" cy="215" r="5" fill="#4A1259"/>
  <circle cx="200" cy="212" r="5" fill="#5C1A6E"/>
  <circle cx="215" cy="215" r="5" fill="#4A1259"/>
  <circle cx="193" cy="222" r="5" fill="#6B2080"/>
  <circle cx="207" cy="222" r="5" fill="#5C1A6E"/>
  <!-- Label -->
  <text x="200" y="275" text-anchor="middle" font-family="sans-serif" font-size="18" font-weight="bold" fill="#4A1259">오디 따기 체험</text>
</svg>