<svg xmlns="http://www.w3.org/2000/svg" viewBox="0 0 800 600" width="800" height="600">
  <rect width="800" height="600" fill="#E8D5F0"/>
  <!-- Fabric/cloth shape -->
  <path d="M300 180 Q320 170 400 180 Q480 170 500 180 L510 350 Q480 370 400 360 Q320 370 290 350 Z" fill="#C9A0DC" stroke="#9B6DB0" stroke-width="2"/>
  <path d="M310 200 Q400 210 490 200" fill="none" stroke="#9B6DB0" stroke-width="1.5" stroke-dasharray="8 4"/>
  <path d="M305 240 Q400 250 495 240" fill="none" stroke="#9B6DB0" stroke-width="1.5" stroke-dasharray="8 4"/>
  <path d="M300 280 Q400 290 500 280" fill="none" stroke="#9B6DB0" stroke-width="1.5" stroke-dasharray="8 4"/>
  <path d="M298 320 Q400 330 502 320" fill="none" stroke="#9B6DB0" stroke-width="1.5" stroke-dasharray="8 4"/>
  <!-- Decorative dots on fabric -->
  <circle cx="370" cy="220" r="5" fill="#E8D5F0" opacity="0.6"/>
  <circle cx="430" cy="260" r="5" fill="#E8D5F0" opacity="0.6"/>
  <circle cx="380" cy="300" r="5" fill="#E8D5F0" opacity="0.6"/>
  <circle cx="420" cy="220" r="5" fill="#E8D5F0" opacity="0.6"/>
  <!-- Label -->
  <text x="400" y="440" text-anchor="middle" font-family="sans-serif" font-size="36" font-weight="bold" fill="#6B3A7D">천연 염색 손수건</text>
</svg>
