<svg xmlns="http://www.w3.org/2000/svg" viewBox="0 0 800 600" width="800" height="600">
  <rect width="800" height="600" fill="#D5E8D0"/>
  <!-- Large leaf -->
  <path d="M400 170 Q340 250 350 330 Q370 370 400 380 Q430 370 450 330 Q460 250 400 170Z" fill="#5DAE4B" stroke="#3D7A2E" stroke-width="2"/>
  <!-- Leaf vein -->
  <line x1="400" y1="190" x2="400" y2="370" stroke="#3D7A2E" stroke-width="2"/>
  <line x1="400" y1="230" x2="370" y2="260" stroke="#3D7A2E" stroke-width="1.5"/>
  <line x1="400" y1="230" x2="430" y2="260" stroke="#3D7A2E" stroke-width="1.5"/>
  <line x1="400" y1="280" x2="365" y2="310" stroke="#3D7A2E" stroke-width="1.5"/>
  <line x1="400" y1="280" x2="435" y2="310" stroke="#3D7A2E" stroke-width="1.5"/>
  <line x1="400" y1="330" x2="375" y2="350" stroke="#3D7A2E" stroke-width="1.5"/>
  <line x1="400" y1="330" x2="425" y2="350" stroke="#3D7A2E" stroke-width="1.5"/>
  <!-- Small carrot on the side -->
  <path d="M310 280 L290 370 L280 280 Z" fill="#E8812A" stroke="#C06A1A" stroke-width="1.5"/>
  <line x1="292" y1="275" x2="285" y2="250" stroke="#3D7A2E" stroke-width="2"/>
  <line x1="298" y1="272" x2="305" y2="248" stroke="#3D7A2E" stroke-width="2"/>
  <!-- Small tomato on the other side -->
  <circle cx="500" cy="310" r="35" fill="#E85040" stroke="#C03020" stroke-width="1.5"/>
  <path d="M490 278 Q500 270 510 278" fill="#3D7A2E"/>
  <!-- Label -->
  <text x="400" y="460" text-anchor="middle" font-family="sans-serif" font-size="36" font-weight="bold" fill="#2D5A1E">유기농 채소</text>
</svg>
